<svg xmlns="http://www.w3.org/2000/svg" width="1024" height="1024" viewBox="0 0 1024 1024" version="1.1">
	<path d="M 97 512 L 97 873 512 873 L 927 873 927 512 L 927 151 512 151 L 97 151 97 512 M 304.750 152.750 C 418.738 152.890, 605.263 152.890, 719.250 152.750 C 833.238 152.610, 739.975 152.495, 512 152.495 C 284.025 152.495, 190.763 152.610, 304.750 152.750 M 142 478 L 142 761 341.884 761 L 541.767 761 545.568 765.250 C 547.659 767.587, 558.906 779.625, 570.562 792 C 582.218 804.375, 594.398 817.533, 597.628 821.239 L 603.500 827.978 742.750 827.989 L 882 828 882 511.500 L 882 195 512 195 L 142 195 142 478 M 98.195 222.500 C 98.215 224.150, 98.439 224.704, 98.693 223.731 C 98.947 222.758, 98.930 221.408, 98.656 220.731 C 98.382 220.054, 98.175 220.850, 98.195 222.500 M 98.158 236 C 98.158 237.375, 98.385 237.938, 98.662 237.250 C 98.940 236.563, 98.940 235.438, 98.662 234.750 C 98.385 234.063, 98.158 234.625, 98.158 236 M 98.158 247 C 98.158 248.375, 98.385 248.938, 98.662 248.250 C 98.940 247.563, 98.940 246.438, 98.662 245.750 C 98.385 245.063, 98.158 245.625, 98.158 247 M 204.573 259.883 C 204.273 260.368, 204.198 266.330, 204.408 273.133 C 204.617 279.935, 204.836 378.753, 204.894 492.728 L 205 699.957 246.374 700.228 L 287.748 700.500 287.917 613.085 C 288.009 565.008, 288.312 525.305, 288.588 524.857 C 289.231 523.817, 337.057 524.632, 338.023 525.700 C 338.420 526.140, 344.616 540, 351.791 556.500 C 358.965 573, 371.205 600.675, 378.989 618 C 386.774 635.325, 394.498 652.875, 396.154 657 C 397.810 661.125, 401.384 669.288, 404.097 675.140 C 406.810 680.991, 409.660 687.876, 410.431 690.438 C 411.202 693, 412.550 696.191, 413.427 697.529 L 415.020 699.960 460.305 700.230 L 505.590 700.500 493.479 675 C 486.817 660.975, 474.712 635.325, 466.578 618 C 458.444 600.675, 450.295 583.575, 448.469 580 C 444.897 573.005, 416 510.993, 416 510.321 C 416 510.099, 418.972 508.583, 422.604 506.953 C 450.758 494.322, 473.471 467.609, 482.509 436.500 C 488.593 415.559, 490.594 386.502, 487.423 365.128 C 484.670 346.568, 476.812 326.052, 466.500 310.500 C 454.469 292.357, 430.902 274.447, 409 266.802 C 393.387 261.352, 388.253 260.837, 341 259.982 C 279.513 258.870, 205.232 258.816, 204.573 259.883 M 541 479.476 L 541 699.953 578.500 700.226 L 616.001 700.500 616 561.050 C 616 480.071, 616.371 421.998, 616.885 422.550 C 618.190 423.949, 634.588 460.502, 648.042 492 C 654.503 507.125, 664.848 530.750, 671.031 544.500 C 681.173 567.052, 722.494 662.390, 733.769 689.250 L 738.282 700 778.643 700 L 819.004 700 818.752 479.750 L 818.500 259.500 781.264 259.238 L 744.027 258.976 744.008 387.160 C 743.997 457.662, 743.837 515.497, 743.652 515.682 C 743.466 515.867, 741.047 510.952, 738.276 504.759 C 735.505 498.567, 724.361 473.700, 713.512 449.500 C 702.663 425.300, 692.703 402.659, 691.378 399.187 C 690.053 395.714, 687.819 390.603, 686.412 387.827 C 682.394 379.897, 674.012 360.914, 642.332 288 C 639.345 281.125, 635.277 271.788, 633.292 267.250 L 629.684 259 585.342 259 L 541 259 541 479.476 M 98.079 261.583 C 98.127 262.748, 98.364 262.985, 98.683 262.188 C 98.972 261.466, 98.936 260.603, 98.604 260.271 C 98.272 259.939, 98.036 260.529, 98.079 261.583 M 98.079 269.583 C 98.127 270.748, 98.364 270.985, 98.683 270.188 C 98.972 269.466, 98.936 268.603, 98.604 268.271 C 98.272 267.939, 98.036 268.529, 98.079 269.583 M 98.158 292 C 98.158 293.375, 98.385 293.938, 98.662 293.250 C 98.940 292.563, 98.940 291.438, 98.662 290.750 C 98.385 290.063, 98.158 290.625, 98.158 292 M 98.195 321.500 C 98.215 323.150, 98.439 323.704, 98.693 322.731 C 98.947 321.758, 98.930 320.408, 98.656 319.731 C 98.382 319.054, 98.175 319.850, 98.195 321.500 M 287.999 390.750 L 287.998 450.500 325.249 449.985 C 360.989 449.491, 362.762 449.377, 368.962 447.153 C 378.243 443.825, 383.193 440.641, 389.207 434.130 C 395.723 427.076, 399.330 420.064, 402.114 409.037 C 404.895 398.021, 404.416 378.876, 401.131 369.664 C 395.931 355.090, 386.598 344.363, 373.500 337.907 C 361.107 331.799, 354.796 331, 318.912 331 L 288 331 287.999 390.750 M 98.079 344.583 C 98.127 345.748, 98.364 345.985, 98.683 345.188 C 98.972 344.466, 98.936 343.603, 98.604 343.271 C 98.272 342.939, 98.036 343.529, 98.079 344.583 M 98.079 374.583 C 98.127 375.748, 98.364 375.985, 98.683 375.188 C 98.972 374.466, 98.936 373.603, 98.604 373.271 C 98.272 372.939, 98.036 373.529, 98.079 374.583 M 98.079 401.583 C 98.127 402.748, 98.364 402.985, 98.683 402.188 C 98.972 401.466, 98.936 400.603, 98.604 400.271 C 98.272 399.939, 98.036 400.529, 98.079 401.583 M 98.158 410 C 98.158 411.375, 98.385 411.938, 98.662 411.250 C 98.940 410.563, 98.940 409.438, 98.662 408.750 C 98.385 408.063, 98.158 408.625, 98.158 410 M 98.158 433 C 98.158 434.375, 98.385 434.938, 98.662 434.250 C 98.940 433.563, 98.940 432.438, 98.662 431.750 C 98.385 431.063, 98.158 431.625, 98.158 433 M 98.079 456.583 C 98.127 457.748, 98.364 457.985, 98.683 457.188 C 98.972 456.466, 98.936 455.603, 98.604 455.271 C 98.272 454.939, 98.036 455.529, 98.079 456.583 M 98.079 467.583 C 98.127 468.748, 98.364 468.985, 98.683 468.188 C 98.972 467.466, 98.936 466.603, 98.604 466.271 C 98.272 465.939, 98.036 466.529, 98.079 467.583 M 98.079 471.583 C 98.127 472.748, 98.364 472.985, 98.683 472.188 C 98.972 471.466, 98.936 470.603, 98.604 470.271 C 98.272 469.939, 98.036 470.529, 98.079 471.583 M 98.195 479.500 C 98.215 481.150, 98.439 481.704, 98.693 480.731 C 98.947 479.758, 98.930 478.408, 98.656 477.731 C 98.382 477.054, 98.175 477.850, 98.195 479.500 M 98.079 497.583 C 98.127 498.748, 98.364 498.985, 98.683 498.188 C 98.972 497.466, 98.936 496.603, 98.604 496.271 C 98.272 495.939, 98.036 496.529, 98.079 497.583 M 98.195 513.500 C 98.215 515.150, 98.439 515.704, 98.693 514.731 C 98.947 513.758, 98.930 512.408, 98.656 511.731 C 98.382 511.054, 98.175 511.850, 98.195 513.500 M 98.079 523.583 C 98.127 524.748, 98.364 524.985, 98.683 524.188 C 98.972 523.466, 98.936 522.603, 98.604 522.271 C 98.272 521.939, 98.036 522.529, 98.079 523.583 M 98.079 533.583 C 98.127 534.748, 98.364 534.985, 98.683 534.188 C 98.972 533.466, 98.936 532.603, 98.604 532.271 C 98.272 531.939, 98.036 532.529, 98.079 533.583 M 98.079 537.583 C 98.127 538.748, 98.364 538.985, 98.683 538.188 C 98.972 537.466, 98.936 536.603, 98.604 536.271 C 98.272 535.939, 98.036 536.529, 98.079 537.583 M 98.079 544.583 C 98.127 545.748, 98.364 545.985, 98.683 545.188 C 98.972 544.466, 98.936 543.603, 98.604 543.271 C 98.272 542.939, 98.036 543.529, 98.079 544.583 M 98.079 560.583 C 98.127 561.748, 98.364 561.985, 98.683 561.188 C 98.972 560.466, 98.936 559.603, 98.604 559.271 C 98.272 558.939, 98.036 559.529, 98.079 560.583 M 98.232 568 C 98.232 569.925, 98.438 570.712, 98.689 569.750 C 98.941 568.788, 98.941 567.212, 98.689 566.250 C 98.438 565.288, 98.232 566.075, 98.232 568 M 98.232 600 C 98.232 601.925, 98.438 602.712, 98.689 601.750 C 98.941 600.788, 98.941 599.212, 98.689 598.250 C 98.438 597.288, 98.232 598.075, 98.232 600 M 98.079 618.583 C 98.127 619.748, 98.364 619.985, 98.683 619.188 C 98.972 618.466, 98.936 617.603, 98.604 617.271 C 98.272 616.939, 98.036 617.529, 98.079 618.583 M 98.079 622.583 C 98.127 623.748, 98.364 623.985, 98.683 623.188 C 98.972 622.466, 98.936 621.603, 98.604 621.271 C 98.272 620.939, 98.036 621.529, 98.079 622.583 M 98.079 654.583 C 98.127 655.748, 98.364 655.985, 98.683 655.188 C 98.972 654.466, 98.936 653.603, 98.604 653.271 C 98.272 652.939, 98.036 653.529, 98.079 654.583 M 98.079 677.583 C 98.127 678.748, 98.364 678.985, 98.683 678.188 C 98.972 677.466, 98.936 676.603, 98.604 676.271 C 98.272 675.939, 98.036 676.529, 98.079 677.583 M 98.232 691 C 98.232 692.925, 98.438 693.712, 98.689 692.750 C 98.941 691.788, 98.941 690.212, 98.689 689.250 C 98.438 688.288, 98.232 689.075, 98.232 691 M 98.195 776.500 C 98.215 778.150, 98.439 778.704, 98.693 777.731 C 98.947 776.758, 98.930 775.408, 98.656 774.731 C 98.382 774.054, 98.175 774.850, 98.195 776.500 M 98.158 791 C 98.158 792.375, 98.385 792.938, 98.662 792.250 C 98.940 791.563, 98.940 790.438, 98.662 789.750 C 98.385 789.063, 98.158 789.625, 98.158 791 M 98.158 801 C 98.158 802.375, 98.385 802.938, 98.662 802.250 C 98.940 801.563, 98.940 800.438, 98.662 799.750 C 98.385 799.063, 98.158 799.625, 98.158 801 M 98.300 818 C 98.300 821.025, 98.487 822.263, 98.716 820.750 C 98.945 819.237, 98.945 816.763, 98.716 815.250 C 98.487 813.737, 98.300 814.975, 98.300 818 M 98.272 829 C 98.272 831.475, 98.467 832.487, 98.706 831.250 C 98.944 830.013, 98.944 827.987, 98.706 826.750 C 98.467 825.513, 98.272 826.525, 98.272 829 M 98.310 842.500 C 98.315 845.800, 98.502 847.029, 98.725 845.232 C 98.947 843.435, 98.943 840.735, 98.715 839.232 C 98.486 837.729, 98.304 839.200, 98.310 842.500 M 98.079 850.583 C 98.127 851.748, 98.364 851.985, 98.683 851.188 C 98.972 850.466, 98.936 849.603, 98.604 849.271 C 98.272 848.939, 98.036 849.529, 98.079 850.583 M 98.300 861 C 98.300 864.025, 98.487 865.263, 98.716 863.750 C 98.945 862.237, 98.945 859.763, 98.716 858.250 C 98.487 856.737, 98.300 857.975, 98.300 861 M 97.999 871.250 C 98 871.663, 112.287 871.904, 129.750 871.786 C 161.469 871.573, 157.882 871.237, 118.749 870.755 C 107.336 870.615, 97.998 870.837, 97.999 871.250 M 200.176 871.750 C 220.348 871.901, 253.648 871.901, 274.176 871.750 C 294.704 871.599, 278.200 871.475, 237.500 871.475 C 196.800 871.475, 180.004 871.598, 200.176 871.750 M 341.750 871.749 C 358.388 871.903, 385.613 871.903, 402.250 871.749 C 418.888 871.596, 405.275 871.470, 372 871.470 C 338.725 871.470, 325.113 871.596, 341.750 871.749 M 440.250 871.742 C 443.962 871.934, 450.038 871.934, 453.750 871.742 C 457.462 871.549, 454.425 871.392, 447 871.392 C 439.575 871.392, 436.538 871.549, 440.250 871.742 M 462.269 871.693 C 463.242 871.947, 464.592 871.930, 465.269 871.656 C 465.946 871.382, 465.150 871.175, 463.500 871.195 C 461.850 871.215, 461.296 871.439, 462.269 871.693 M 496.250 871.749 C 512.612 871.904, 539.387 871.904, 555.750 871.749 C 572.112 871.595, 558.725 871.469, 526 871.469 C 493.275 871.469, 479.887 871.595, 496.250 871.749 M 586.750 871.662 C 587.438 871.940, 588.563 871.940, 589.250 871.662 C 589.938 871.385, 589.375 871.158, 588 871.158 C 586.625 871.158, 586.063 871.385, 586.750 871.662 M 643.327 871.750 C 672.381 871.897, 719.631 871.897, 748.327 871.750 C 777.022 871.602, 753.250 871.482, 695.500 871.482 C 637.750 871.482, 614.272 871.602, 643.327 871.750 M 802.250 871.689 C 803.212 871.941, 804.788 871.941, 805.750 871.689 C 806.712 871.438, 805.925 871.232, 804 871.232 C 802.075 871.232, 801.288 871.438, 802.250 871.689 M 814.292 871.742 C 818.027 871.935, 823.877 871.934, 827.292 871.739 C 830.706 871.545, 827.650 871.387, 820.500 871.389 C 813.350 871.390, 810.556 871.550, 814.292 871.742 M 856.750 871.749 C 869.538 871.907, 890.463 871.907, 903.250 871.749 C 916.038 871.591, 905.575 871.461, 880 871.461 C 854.425 871.461, 843.963 871.591, 856.750 871.749" stroke="none" fill="#000000" fill-rule="evenodd"/>
</svg>